<svg width="197" height="45" viewBox="0 0 197 45" fill="none" xmlns="http://www.w3.org/2000/svg">
<rect x="153.714" y="0.0332031" width="42.4719" height="42.6861" rx="21.236" fill="#FDFDFD"/>
<path d="M170.507 29.3426V18.8421H167.035V29.3426H170.508H170.507ZM168.772 17.4087C169.983 17.4087 170.736 16.6024 170.736 15.5947C170.714 14.5641 169.983 13.7803 168.795 13.7803C167.606 13.7803 166.83 14.5641 166.83 15.5946C166.83 16.6023 167.584 17.4086 168.749 17.4086H168.772L168.772 17.4087ZM172.43 29.3426H175.902V23.4793C175.902 23.1659 175.925 22.8517 176.016 22.6278C176.267 22.0005 176.839 21.3512 177.798 21.3512C179.055 21.3512 179.557 22.314 179.557 23.7258V29.3426H183.03V23.322C183.03 20.0968 181.317 18.5959 179.032 18.5959C177.159 18.5959 176.336 19.6482 175.879 20.3648H175.902V18.8425H172.43C172.475 19.8276 172.43 29.343 172.43 29.343L172.43 29.3426Z" fill="#F5F5F5"/>
<path d="M170.968 28.2057V17.2612H167.509V28.2057H170.969H170.968ZM169.239 15.7672C170.445 15.7672 171.196 14.9268 171.196 13.8765C171.174 12.8023 170.445 11.9854 169.262 11.9854C168.078 11.9854 167.305 12.8023 167.305 13.8764C167.305 14.9267 168.055 15.7671 169.217 15.7671H169.239L169.239 15.7672ZM172.883 28.2057H176.343V22.0945C176.343 21.7678 176.365 21.4403 176.457 21.2069C176.707 20.5531 177.276 19.8763 178.232 19.8763C179.484 19.8763 179.985 20.8799 179.985 22.3513V28.2057H183.444V21.9305C183.444 18.5689 181.737 17.0046 179.461 17.0046C177.595 17.0046 176.775 18.1013 176.32 18.8483H176.343V17.2616H172.884C172.929 18.2883 172.883 28.2061 172.883 28.2061L172.883 28.2057Z" fill="black"/>
<rect x="77.2646" y="1.74023" width="42.4719" height="42.6861" rx="21.236" fill="#FDFDFD"/>
<path d="M95.1039 22.6561C95.1039 20.5344 96.8148 18.814 98.9259 18.814C101.037 18.814 102.749 20.5344 102.749 22.6561C102.749 24.7778 101.037 26.4982 98.9259 26.4982C96.8148 26.4982 95.1039 24.7778 95.1039 22.6561ZM93.0373 22.6561C93.0373 25.9247 95.6736 28.5742 98.9259 28.5742C102.178 28.5742 104.814 25.9247 104.814 22.6561C104.814 19.3875 102.178 16.738 98.9259 16.738C95.6736 16.738 93.0373 19.3875 93.0373 22.6561ZM103.671 16.5034C103.671 16.7769 103.752 17.0443 103.903 17.2718C104.054 17.4993 104.269 17.6767 104.52 17.7815C104.772 17.8862 105.049 17.9137 105.316 17.8605C105.583 17.8072 105.828 17.6756 106.02 17.4823C106.213 17.2889 106.344 17.0425 106.397 16.7743C106.45 16.506 106.423 16.2279 106.319 15.9752C106.215 15.7224 106.039 15.5063 105.813 15.3543C105.586 15.2022 105.32 15.121 105.048 15.1209C104.683 15.1211 104.333 15.2668 104.075 15.526C103.817 15.7852 103.672 16.1367 103.671 16.5034ZM94.2929 32.0374C93.1748 31.9862 92.5671 31.799 92.1632 31.6409C91.6278 31.4314 91.2458 31.1819 90.8441 30.7788C90.4425 30.3757 90.1939 29.9922 89.9864 29.4541C89.8289 29.0484 89.6427 28.4374 89.5919 27.3138C89.5363 26.0989 89.5252 25.734 89.5252 22.6562C89.5252 19.5784 89.5372 19.2145 89.5919 17.9986C89.6428 16.8749 89.8304 16.2652 89.9864 15.8583C90.1948 15.3202 90.443 14.9363 90.8441 14.5327C91.2453 14.129 91.6269 13.8791 92.1632 13.6706C92.5669 13.5123 93.1748 13.3252 94.2929 13.2741C95.5017 13.2182 95.8648 13.2071 98.9259 13.2071C101.987 13.2071 102.35 13.2191 103.56 13.2741C104.678 13.3253 105.285 13.5138 105.69 13.6706C106.225 13.8791 106.607 14.1295 107.009 14.5327C107.411 14.9358 107.658 15.3202 107.867 15.8583C108.024 16.264 108.21 16.8749 108.261 17.9986C108.317 19.2145 108.328 19.5784 108.328 22.6562C108.328 25.734 108.317 26.0979 108.261 27.3138C108.21 28.4374 108.023 29.0482 107.867 29.4541C107.658 29.9922 107.41 30.3761 107.009 30.7788C106.608 31.1816 106.225 31.4314 105.69 31.6409C105.286 31.7991 104.678 31.9863 103.56 32.0374C102.351 32.0933 101.988 32.1044 98.9259 32.1044C95.8634 32.1044 95.5013 32.0933 94.2929 32.0374ZM94.1979 11.2007C92.9771 11.2565 92.1429 11.4511 91.4143 11.736C90.6598 12.0302 90.0211 12.4249 89.3829 13.0653C88.7446 13.7058 88.3529 14.3487 88.0601 15.107C87.7766 15.8396 87.5831 16.6775 87.5275 17.9045C87.4709 19.1333 87.458 19.5262 87.458 22.6561C87.458 25.786 87.4709 26.1789 87.5275 27.4077C87.5831 28.6348 87.7766 29.4726 88.0601 30.2052C88.3529 30.963 88.7447 31.6067 89.3829 32.2469C90.021 32.887 90.6598 33.2812 91.4143 33.5762C92.1442 33.8611 92.9771 34.0557 94.1979 34.1116C95.4213 34.1674 95.8116 34.1813 98.9259 34.1813C102.04 34.1813 102.431 34.1683 103.654 34.1116C104.875 34.0557 105.708 33.8611 106.437 33.5762C107.191 33.2812 107.831 32.8873 108.469 32.2469C109.107 31.6064 109.498 30.963 109.792 30.2052C110.075 29.4726 110.27 28.6347 110.324 27.4077C110.38 26.1779 110.393 25.786 110.393 22.6561C110.393 19.5262 110.38 19.1333 110.324 17.9045C110.269 16.6775 110.075 15.8392 109.792 15.107C109.498 14.3492 109.106 13.7068 108.469 13.0653C107.832 12.4239 107.191 12.0302 106.438 11.736C105.708 11.4511 104.875 11.2556 103.655 11.2007C102.432 11.1448 102.041 11.1309 98.9268 11.1309C95.8125 11.1309 95.4213 11.1439 94.1979 11.2007Z" fill="black"/>
<rect x="0.81543" y="1.74023" width="42.4719" height="42.6861" rx="21.236" fill="#FDFDFD"/>
<path d="M26.3984 23.9901L26.9796 20.1292H23.3995V17.6197C23.3995 16.564 23.8993 15.5325 25.4976 15.5325H27.1482V12.2447C26.1869 12.0845 25.2157 11.9978 24.2422 11.9854C21.2955 11.9854 19.3718 13.8373 19.3718 17.1854V20.1292H16.1055V23.9901H19.3718V33.3284H23.3995V23.9901H26.3984Z" fill="black"/>
</svg>
