<svg width="57" height="59" viewBox="0 0 57 59" fill="none" xmlns="http://www.w3.org/2000/svg">
<g clip-path="url(#clip0_553_560)">
<path d="M23.7949 49.5599L42.1157 23.1356C42.3055 22.8632 42.4099 22.5314 42.4159 22.1816C42.4219 21.8318 42.3292 21.4794 42.1493 21.1681C41.9695 20.8569 41.7104 20.6006 41.4043 20.4311C41.0983 20.2616 40.7588 20.1863 40.4279 20.2148L8.38533 22.8918C8.10683 22.9132 7.84354 23.0076 7.61921 23.1666C7.39488 23.3256 7.21657 23.5441 7.10036 23.8024C6.98415 24.0607 6.9337 24.3508 6.95356 24.6463C6.97343 24.9419 7.06298 25.2337 7.21414 25.4954L11.4282 32.8216C11.8868 33.6153 12.8151 33.9893 13.5917 33.6676L35.716 24.8855L17.0497 39.6521C16.3923 40.1801 16.2528 41.1712 16.7114 41.9649L20.9543 49.2744C21.6055 50.4015 23.1084 50.5706 23.7949 49.5599V49.5599Z" fill="white"/>
</g>
<defs>
<clipPath id="clip0_553_560">
<rect width="40" height="44" fill="white" transform="translate(0.176758 20.0127) rotate(-30.0205)"/>
</clipPath>
</defs>
</svg>
