<svg width="73" height="72" viewBox="0 0 73 72" fill="none" xmlns="http://www.w3.org/2000/svg">
<g filter="url(#filter0_d_648_224)">
<path d="M18 21.6798L37.3187 16.5L56.6182 21.6798V32.3016C56.6182 43.4655 48.8409 52.3912 37.3123 55.9203C25.7805 52.3922 18 43.4635 18 32.2967V21.6798Z" stroke="#6F6F6F" stroke-width="4" stroke-linejoin="round" shape-rendering="crispEdges"/>
</g>
<path d="M37.3089 35.2247C40.2712 35.2247 42.6726 33.0186 42.6726 30.2972C42.6726 27.5758 40.2712 25.3696 37.3089 25.3696C34.3467 25.3696 31.9453 27.5758 31.9453 30.2972C31.9453 33.0186 34.3467 35.2247 37.3089 35.2247Z" stroke="#6F6F6F" stroke-width="4" stroke-linecap="round" stroke-linejoin="round"/>
<path d="M45.8912 43.1087C45.8912 41.0177 44.987 39.0123 43.3776 37.5338C41.7682 36.0552 39.5854 35.2246 37.3094 35.2246C35.0333 35.2246 32.8505 36.0552 31.2411 37.5338C29.6317 39.0123 28.7275 41.0177 28.7275 43.1087" stroke="#6F6F6F" stroke-width="4" stroke-linecap="round" stroke-linejoin="round"/>
<defs>
<filter id="filter0_d_648_224" x="9" y="7.5" width="56.6182" height="57.4204" filterUnits="userSpaceOnUse" color-interpolation-filters="sRGB">
<feFlood flood-opacity="0" result="BackgroundImageFix"/>
<feColorMatrix in="SourceAlpha" type="matrix" values="0 0 0 0 0 0 0 0 0 0 0 0 0 0 0 0 0 0 127 0" result="hardAlpha"/>
<feOffset/>
<feGaussianBlur stdDeviation="3.5"/>
<feComposite in2="hardAlpha" operator="out"/>
<feColorMatrix type="matrix" values="0 0 0 0 0 0 0 0 0 0 0 0 0 0 0 0 0 0 0.37 0"/>
<feBlend mode="normal" in2="BackgroundImageFix" result="effect1_dropShadow_648_224"/>
<feBlend mode="normal" in="SourceGraphic" in2="effect1_dropShadow_648_224" result="shape"/>
</filter>
</defs>
</svg>
