<svg width="41" height="42" viewBox="0 0 41 42" fill="none" xmlns="http://www.w3.org/2000/svg">
<g filter="url(#filter0_d_516_172)">
<path fill-rule="evenodd" clip-rule="evenodd" d="M22.1406 2.25862C22.1406 1.79221 21.9678 1.34489 21.6601 1.01509C21.3524 0.685283 20.9351 0.5 20.5 0.5C20.0649 0.5 19.6476 0.685283 19.3399 1.01509C19.0322 1.34489 18.8594 1.79221 18.8594 2.25862V5.18966H16.7068C16.0396 5.18966 15.3856 5.37724 14.8059 5.72897L11.9883 7.4571C11.9051 7.50815 11.8108 7.53484 11.7149 7.53448H6.82797C6.39284 7.53448 5.97554 7.71977 5.66786 8.04957C5.36017 8.37938 5.18732 8.82669 5.18732 9.2931C5.18732 9.75952 5.36017 10.2068 5.66786 10.5366C5.97554 10.8664 6.39284 11.0517 6.82797 11.0517H7.76423L3.14417 22.0537C3.00771 22.3791 2.96685 22.7414 3.02702 23.0924C3.08719 23.4434 3.24555 23.7664 3.48105 24.0186V24.021L3.48543 24.0257L3.4898 24.0303L3.50293 24.0444L3.53793 24.0796L3.63637 24.1734C4.09643 24.5867 4.60007 24.9408 5.13701 25.2286C6.5145 25.9484 8.02999 26.313 9.56237 26.2931C11.4874 26.2931 12.9662 25.7772 13.9877 25.2286C14.5247 24.9408 15.0283 24.5867 15.4884 24.1734L15.5868 24.0796L15.6218 24.0444L15.6349 24.0303L15.6393 24.0257L15.6415 24.021L14.4843 22.7759L15.6437 24.0186C15.8792 23.7664 16.0376 23.4434 16.0977 23.0924C16.1579 22.7414 16.117 22.3791 15.9806 22.0537L11.3605 11.0517H11.7149C12.3821 11.0517 13.0362 10.8641 13.6159 10.5124L16.4356 8.78428C16.5182 8.73363 16.6117 8.70695 16.7068 8.7069H18.8594V30.9828H13.3905C12.9554 30.9828 12.5381 31.168 12.2304 31.4979C11.9228 31.8277 11.7499 32.275 11.7499 32.7414C11.7499 33.2078 11.9228 33.6551 12.2304 33.9849C12.5381 34.3147 12.9554 34.5 13.3905 34.5H27.6095C28.0446 34.5 28.4619 34.3147 28.7696 33.9849C29.0772 33.6551 29.2501 33.2078 29.2501 32.7414C29.2501 32.275 29.0772 31.8277 28.7696 31.4979C28.4619 31.168 28.0446 30.9828 27.6095 30.9828H22.1406V8.7069H24.2932C24.3883 8.70695 24.4818 8.73363 24.5644 8.78428L27.3863 10.5101C27.9638 10.8665 28.6179 11.0517 29.2851 11.0517H29.6395L25.0194 22.0537C24.883 22.3791 24.8421 22.7414 24.9023 23.0924C24.9624 23.4434 25.1208 23.7664 25.3563 24.0186V24.021L25.3607 24.0257L25.3651 24.0303L25.3782 24.0444L25.4132 24.0796L25.5116 24.1734C25.9717 24.5867 26.4754 24.9408 27.0123 25.2286C28.3898 25.9484 29.9052 26.313 31.4376 26.2931C33.3627 26.2931 34.8414 25.7772 35.863 25.2286C36.3999 24.9409 36.9036 24.5867 37.3636 24.1734L37.4621 24.0796L37.4839 24.0561L37.4971 24.0444L37.5102 24.0303L37.5146 24.0257L37.5168 24.021L36.3596 22.7759L37.5189 24.0186C37.7545 23.7664 37.9128 23.4434 37.973 23.0924C38.0332 22.7414 37.9923 22.3791 37.8558 22.0537L33.238 11.0517H34.172C34.6072 11.0517 35.0245 10.8664 35.3321 10.5366C35.6398 10.2068 35.8127 9.75952 35.8127 9.2931C35.8127 8.82669 35.6398 8.37938 35.3321 8.04957C35.0245 7.71977 34.6072 7.53448 34.172 7.53448H29.2851C29.1899 7.53443 29.0964 7.50775 29.0138 7.4571L26.1919 5.73131C25.6144 5.37715 24.9607 5.19047 24.2954 5.18966H22.1406V2.25862ZM6.70765 22.1357C7.3311 22.4523 8.27829 22.7759 9.56237 22.7759C10.8464 22.7759 11.7936 22.4523 12.4171 22.1357L9.56237 15.3357L6.70765 22.1357ZM28.5829 22.1357C29.2064 22.4523 30.1536 22.7759 31.4376 22.7759C32.7217 22.7759 33.6689 22.4523 34.2923 22.1357L31.4376 15.3357L28.5829 22.1357Z" fill="#FFBC65"/>
</g>
<defs>
<filter id="filter0_d_516_172" x="0" y="0.5" width="41" height="41" filterUnits="userSpaceOnUse" color-interpolation-filters="sRGB">
<feFlood flood-opacity="0" result="BackgroundImageFix"/>
<feColorMatrix in="SourceAlpha" type="matrix" values="0 0 0 0 0 0 0 0 0 0 0 0 0 0 0 0 0 0 127 0" result="hardAlpha"/>
<feOffset dy="4"/>
<feGaussianBlur stdDeviation="1.5"/>
<feComposite in2="hardAlpha" operator="out"/>
<feColorMatrix type="matrix" values="0 0 0 0 0 0 0 0 0 0 0 0 0 0 0 0 0 0 0.23 0"/>
<feBlend mode="normal" in2="BackgroundImageFix" result="effect1_dropShadow_516_172"/>
<feBlend mode="normal" in="SourceGraphic" in2="effect1_dropShadow_516_172" result="shape"/>
</filter>
</defs>
</svg>
