<svg width="41" height="38" viewBox="0 0 41 38" fill="none" xmlns="http://www.w3.org/2000/svg">
<g filter="url(#filter0_d_653_551)">
<path d="M20.5 0L34.9591 5.8125H36.9059C37.196 5.8125 37.4742 5.91456 37.6793 6.09624C37.8844 6.27791 37.9996 6.52432 37.9996 6.78125V10.6562C37.9996 10.9132 37.8844 11.1596 37.6793 11.3413C37.4742 11.5229 37.196 11.625 36.9059 11.625H35.8122V25.1875C36.0564 25.1877 36.2936 25.2602 36.4859 25.3937C36.6781 25.5271 36.8145 25.7137 36.8731 25.9237L37.9668 29.7987C38.0075 29.9414 38.0108 30.0905 37.9765 30.2345C37.9421 30.3785 37.8711 30.5137 37.7687 30.6296C37.6663 30.7456 37.5353 30.8392 37.3858 30.9034C37.2362 30.9676 37.0721 31.0006 36.9059 31H4.09411C3.92793 31.0006 3.76379 30.9676 3.61425 30.9034C3.4647 30.8392 3.33373 30.7456 3.23134 30.6296C3.12895 30.5137 3.05786 30.3785 3.02352 30.2345C2.98917 30.0905 2.99248 29.9414 3.0332 29.7987L4.12692 25.9237C4.18589 25.7139 4.3223 25.5275 4.51449 25.3941C4.70669 25.2607 4.94367 25.188 5.18784 25.1875V11.625H4.09411C3.80404 11.625 3.52584 11.5229 3.32073 11.3413C3.11562 11.1596 3.00039 10.9132 3.00039 10.6562V6.78125C3.00039 6.52432 3.11562 6.27791 3.32073 6.09624C3.52584 5.91456 3.80404 5.8125 4.09411 5.8125H6.04094L20.5 0ZM11.2624 5.8125H29.7398L20.5 1.9375L11.2624 5.8125ZM7.37529 11.625V25.1875H9.56274V11.625H7.37529ZM11.7502 11.625V25.1875H17.2188V11.625H11.7502ZM19.4063 11.625V25.1875H21.5937V11.625H19.4063ZM23.7812 11.625V25.1875H29.2498V11.625H23.7812ZM31.4373 11.625V25.1875H33.6247V11.625H31.4373ZM35.8122 9.6875V7.75H5.18784V9.6875H35.8122ZM34.9591 27.125H6.04094L5.49408 29.0625H35.5059L34.9591 27.125V27.125Z" fill="#F3BD74"/>
</g>
<defs>
<filter id="filter0_d_653_551" x="0" y="0" width="41" height="38" filterUnits="userSpaceOnUse" color-interpolation-filters="sRGB">
<feFlood flood-opacity="0" result="BackgroundImageFix"/>
<feColorMatrix in="SourceAlpha" type="matrix" values="0 0 0 0 0 0 0 0 0 0 0 0 0 0 0 0 0 0 127 0" result="hardAlpha"/>
<feOffset dy="4"/>
<feGaussianBlur stdDeviation="1.5"/>
<feComposite in2="hardAlpha" operator="out"/>
<feColorMatrix type="matrix" values="0 0 0 0 0 0 0 0 0 0 0 0 0 0 0 0 0 0 0.1 0"/>
<feBlend mode="normal" in2="BackgroundImageFix" result="effect1_dropShadow_653_551"/>
<feBlend mode="normal" in="SourceGraphic" in2="effect1_dropShadow_653_551" result="shape"/>
</filter>
</defs>
</svg>
