<svg width="41" height="39" viewBox="0 0 41 39" fill="none" xmlns="http://www.w3.org/2000/svg">
<g filter="url(#filter0_d_516_170)">
<path d="M18.75 21.3V24.5C18.75 24.9533 18.918 25.3331 19.254 25.6392C19.5888 25.9464 20.0042 26.1 20.5 26.1C20.9958 26.1 21.4118 25.9464 21.7478 25.6392C22.0826 25.3331 22.25 24.9533 22.25 24.5V21.3H25.75C26.2458 21.3 26.6618 21.1464 26.9978 20.8392C27.3326 20.5331 27.5 20.1533 27.5 19.7C27.5 19.2467 27.3326 18.8664 26.9978 18.5592C26.6618 18.2531 26.2458 18.1 25.75 18.1H22.25V14.9C22.25 14.4467 22.0826 14.0664 21.7478 13.7592C21.4118 13.4531 20.9958 13.3 20.5 13.3C20.0042 13.3 19.5888 13.4531 19.254 13.7592C18.918 14.0664 18.75 14.4467 18.75 14.9V18.1H15.25C14.7542 18.1 14.3388 18.2531 14.004 18.5592C13.668 18.8664 13.5 19.2467 13.5 19.7C13.5 20.1533 13.668 20.5331 14.004 20.8392C14.3388 21.1464 14.7542 21.3 15.25 21.3H18.75ZM6.5 32.5C5.5375 32.5 4.71383 32.1869 4.029 31.5608C3.343 30.9336 3 30.18 3 29.3V10.1C3 9.22 3.343 8.46693 4.029 7.8408C4.71383 7.2136 5.5375 6.9 6.5 6.9H13.5V3.7C13.5 2.82 13.843 2.0664 14.529 1.4392C15.2138 0.813067 16.0375 0.5 17 0.5H24C24.9625 0.5 25.7868 0.813067 26.4728 1.4392C27.1576 2.0664 27.5 2.82 27.5 3.7V6.9H34.5C35.4625 6.9 36.2867 7.2136 36.9727 7.8408C37.6576 8.46693 38 9.22 38 10.1V29.3C38 30.18 37.6576 30.9336 36.9727 31.5608C36.2867 32.1869 35.4625 32.5 34.5 32.5H6.5ZM17 6.9H24V3.7H17V6.9ZM6.5 29.3H34.5V10.1H6.5V29.3Z" fill="#FFBC65"/>
</g>
<defs>
<filter id="filter0_d_516_170" x="0" y="0.5" width="41" height="38" filterUnits="userSpaceOnUse" color-interpolation-filters="sRGB">
<feFlood flood-opacity="0" result="BackgroundImageFix"/>
<feColorMatrix in="SourceAlpha" type="matrix" values="0 0 0 0 0 0 0 0 0 0 0 0 0 0 0 0 0 0 127 0" result="hardAlpha"/>
<feOffset dy="3"/>
<feGaussianBlur stdDeviation="1.5"/>
<feComposite in2="hardAlpha" operator="out"/>
<feColorMatrix type="matrix" values="0 0 0 0 0 0 0 0 0 0 0 0 0 0 0 0 0 0 0.23 0"/>
<feBlend mode="normal" in2="BackgroundImageFix" result="effect1_dropShadow_516_170"/>
<feBlend mode="normal" in="SourceGraphic" in2="effect1_dropShadow_516_170" result="shape"/>
</filter>
</defs>
</svg>
