<svg width="73" height="72" viewBox="0 0 73 72" fill="none" xmlns="http://www.w3.org/2000/svg">
<g filter="url(#filter0_d_650_245)">
<path fill-rule="evenodd" clip-rule="evenodd" d="M44.9997 53.5C47.7001 53.5 50.2899 52.4464 52.1994 50.5711C54.1088 48.6957 55.1816 46.1522 55.1816 43.5C55.1816 40.8478 54.1088 38.3043 52.1994 36.4289C50.2899 34.5536 47.7001 33.5 44.9997 33.5C42.2993 33.5 39.7096 34.5536 37.8001 36.4289C35.8906 38.3043 34.8179 40.8478 34.8179 43.5C34.8179 46.1522 35.8906 48.6957 37.8001 50.5711C39.7096 52.4464 42.2993 53.5 44.9997 53.5V53.5ZM57.727 43.5C57.727 46.8152 56.3861 49.9946 53.9993 52.3388C51.6124 54.683 48.3752 56 44.9997 56C41.6243 56 38.387 54.683 36.0002 52.3388C33.6134 49.9946 32.2725 46.8152 32.2725 43.5C32.2725 40.1848 33.6134 37.0054 36.0002 34.6612C38.387 32.317 41.6243 31 44.9997 31C48.3752 31 51.6124 32.317 53.9993 34.6612C56.3861 37.0054 57.727 40.1848 57.727 43.5V43.5Z" fill="black" fill-opacity="0.5"/>
<path d="M41.024 45.86C41.1437 47.35 42.3426 48.51 44.4935 48.65V49.75H45.448V48.6425C47.6753 48.49 48.976 47.32 48.976 45.625C48.976 44.08 47.9833 43.285 46.2015 42.875L45.448 42.7V39.7C46.4051 39.8075 47.0109 40.32 47.156 41.03H48.8309C48.7113 39.5925 47.4564 38.47 45.448 38.3475V37.25H44.4935V38.375C42.592 38.5575 41.2989 39.68 41.2989 41.27C41.2989 42.675 42.2611 43.57 43.8622 43.935L44.4935 44.0875V47.2675C43.516 47.1225 42.8669 46.5925 42.7218 45.86H41.0215H41.024ZM44.4858 42.475C43.5466 42.2625 43.0375 41.825 43.0375 41.17C43.0375 40.435 43.5873 39.885 44.4935 39.725V42.475H44.4858V42.475ZM45.5855 44.34C46.7284 44.6 47.2528 45.02 47.2528 45.7625C47.2528 46.61 46.5986 47.19 45.448 47.2975V44.31L45.5855 44.34V44.34Z" fill="black" fill-opacity="0.5"/>
<path d="M19.5455 16C18.8704 16 18.2229 16.2634 17.7455 16.7322C17.2682 17.2011 17 17.837 17 18.5V38.5C17 39.163 17.2682 39.7989 17.7455 40.2678C18.2229 40.7366 18.8704 41 19.5455 41H29.9385C30.0862 40.14 30.3076 39.305 30.5953 38.5H24.6364C24.6364 37.1739 24.1 35.9021 23.1453 34.9645C22.1905 34.0268 20.8956 33.5 19.5455 33.5V23.5C20.8956 23.5 22.1905 22.9732 23.1453 22.0355C24.1 21.0979 24.6364 19.8261 24.6364 18.5H50.0909C50.0909 19.8261 50.6273 21.0979 51.582 22.0355C52.5367 22.9732 53.8316 23.5 55.1818 23.5V32.32C56.1491 33.17 57.0069 34.14 57.7273 35.205V18.5C57.7273 17.837 57.4591 17.2011 56.9817 16.7322C56.5044 16.2634 55.8569 16 55.1818 16H19.5455Z" fill="black" fill-opacity="0.5"/>
<path d="M42.4492 28.7075L42.4543 28.5C42.4538 27.6389 42.2269 26.7926 41.7955 26.043C41.3642 25.2934 40.7431 24.6659 39.9924 24.2213C39.2417 23.7766 38.3868 23.5299 37.5105 23.505C36.6341 23.4801 35.7661 23.6779 34.9905 24.0793C34.2149 24.4806 33.5579 25.0718 33.0833 25.7957C32.6086 26.5196 32.3323 27.3516 32.2811 28.2112C32.23 29.0707 32.4057 29.9287 32.7913 30.702C33.1768 31.4752 33.7592 32.1376 34.4819 32.625C36.6806 30.5681 39.4551 29.2039 42.4492 28.7075V28.7075Z" fill="black" fill-opacity="0.5"/>
</g>
<defs>
<filter id="filter0_d_650_245" x="13" y="16" width="48.7275" height="48" filterUnits="userSpaceOnUse" color-interpolation-filters="sRGB">
<feFlood flood-opacity="0" result="BackgroundImageFix"/>
<feColorMatrix in="SourceAlpha" type="matrix" values="0 0 0 0 0 0 0 0 0 0 0 0 0 0 0 0 0 0 127 0" result="hardAlpha"/>
<feOffset dy="4"/>
<feGaussianBlur stdDeviation="2"/>
<feComposite in2="hardAlpha" operator="out"/>
<feColorMatrix type="matrix" values="0 0 0 0 0 0 0 0 0 0 0 0 0 0 0 0 0 0 0.25 0"/>
<feBlend mode="normal" in2="BackgroundImageFix" result="effect1_dropShadow_650_245"/>
<feBlend mode="normal" in="SourceGraphic" in2="effect1_dropShadow_650_245" result="shape"/>
</filter>
</defs>
</svg>
