<svg width="37" height="39" viewBox="0 0 37 39" fill="none" xmlns="http://www.w3.org/2000/svg">
<g filter="url(#filter0_d_653_507)">
<path d="M18.5 0C27.613 0 35 7.38705 35 16.5C35 25.6129 27.613 33 18.5 33C14.653 33.0056 10.9259 31.6615 7.96807 29.2017L7.56547 28.8568L9.05377 25.7185C11.1789 27.8967 13.9914 29.2737 17.0152 29.6164C20.039 29.9591 23.0883 29.2465 25.6471 27.5993C28.2058 25.952 30.1168 23.4712 31.0566 20.5768C31.9964 17.6824 31.9072 14.5522 30.8042 11.716C29.7012 8.87977 27.6521 6.51178 25.0038 5.01281C22.3554 3.51384 19.2705 2.97597 16.2711 3.49024C13.2717 4.00451 10.5422 5.53932 8.54442 7.83491C6.54667 10.1305 5.40346 13.0458 5.30827 16.0875L5.30002 16.5H9.42501L4.96012 25.9314C3.02832 23.1662 1.9948 19.8732 2.00002 16.5C2.00002 7.38705 9.38707 0 18.5 0ZM20.15 6.6V9.89999H24.275V13.2H15.2C14.9939 13.1996 14.795 13.2764 14.6427 13.4153C14.4903 13.5542 14.3955 13.7451 14.3769 13.9504C14.3582 14.1558 14.4172 14.3606 14.542 14.5247C14.6669 14.6887 14.8486 14.8001 15.0515 14.8368L15.2 14.85H21.8C22.894 14.85 23.9432 15.2846 24.7168 16.0582C25.4904 16.8318 25.925 17.881 25.925 18.975C25.925 20.069 25.4904 21.1182 24.7168 21.8918C23.9432 22.6654 22.894 23.1 21.8 23.1H20.15V26.4H16.85V23.1H12.725V19.8H21.8C22.0062 19.8004 22.205 19.7235 22.3573 19.5846C22.5097 19.4458 22.6045 19.2549 22.6232 19.0495C22.6418 18.8442 22.5829 18.6394 22.458 18.4753C22.3331 18.3113 22.1514 18.1999 21.9485 18.1632L21.8 18.15H15.2C14.106 18.15 13.0568 17.7154 12.2832 16.9418C11.5096 16.1682 11.075 15.119 11.075 14.025C11.075 12.931 11.5096 11.8818 12.2832 11.1082C13.0568 10.3346 14.106 9.89999 15.2 9.89999H16.85V6.6H20.15Z" fill="#F1B566"/>
</g>
<defs>
<filter id="filter0_d_653_507" x="0" y="0" width="37" height="39" filterUnits="userSpaceOnUse" color-interpolation-filters="sRGB">
<feFlood flood-opacity="0" result="BackgroundImageFix"/>
<feColorMatrix in="SourceAlpha" type="matrix" values="0 0 0 0 0 0 0 0 0 0 0 0 0 0 0 0 0 0 127 0" result="hardAlpha"/>
<feOffset dy="4"/>
<feGaussianBlur stdDeviation="1"/>
<feComposite in2="hardAlpha" operator="out"/>
<feColorMatrix type="matrix" values="0 0 0 0 0 0 0 0 0 0 0 0 0 0 0 0 0 0 0.1 0"/>
<feBlend mode="normal" in2="BackgroundImageFix" result="effect1_dropShadow_653_507"/>
<feBlend mode="normal" in="SourceGraphic" in2="effect1_dropShadow_653_507" result="shape"/>
</filter>
</defs>
</svg>
