<svg width="73" height="72" viewBox="0 0 73 72" fill="none" xmlns="http://www.w3.org/2000/svg">
<g filter="url(#filter0_d_648_216)">
<path d="M18.0774 34.6506V49.4625H24.9345L25.2808 49.4997C31.6469 50.8574 35.8653 51.8363 37.9677 52.4427C40.7604 53.2477 41.8014 53.4443 43.6956 53.5602C45.1123 53.6492 46.7213 53.1505 47.4546 52.4675C47.8597 52.0908 48.1629 51.3168 48.2829 50.1165C48.3077 49.8648 48.4061 49.6238 48.5678 49.4188C48.7294 49.2138 48.9484 49.0523 49.2017 48.9513C49.7652 48.7278 50.2337 48.3635 50.6252 47.8337C50.9873 47.3495 51.2226 46.4471 51.2656 45.1412C51.2732 44.9012 51.3476 44.6668 51.4819 44.4604C51.6161 44.254 51.8058 44.0823 52.0328 43.9616C53.3499 43.2641 54.0017 42.4777 54.1375 41.5547C54.2869 40.5344 53.9248 39.3858 52.9765 38.0778C52.7541 37.771 52.6712 37.397 52.7456 37.0353C52.82 36.6735 53.0457 36.3526 53.3748 36.1407C54.2823 35.5571 54.7802 34.7458 54.9047 33.5951C55.1038 31.7615 53.8252 30.4059 50.9307 30.1348C48.3527 29.9016 45.7499 30.1001 43.2498 30.7205C42.9662 30.7883 42.6673 30.7805 42.3883 30.6983C42.1093 30.616 41.8618 30.4625 41.675 30.256C41.4881 30.0495 41.3696 29.7984 41.3335 29.5324C41.2974 29.2664 41.3451 28.9965 41.471 28.7544C42.6025 26.5648 43.2317 24.7581 43.3788 23.359C43.5711 21.5026 43.1027 20.1574 42.0073 19.0481C41.1768 18.2079 39.8483 17.7277 39.3504 17.8271C38.6942 17.9554 38.2664 18.3031 37.7097 19.52C37.3816 20.2402 37.2231 20.8528 36.9516 22.2828C36.6913 23.6405 36.5487 24.2531 36.2523 25.0561C35.3584 27.4899 33.1654 30.0127 30.2211 31.7532C28.1576 32.9716 25.9212 33.9256 23.5744 34.5885C23.4278 34.6298 23.2752 34.6508 23.1218 34.6506H18.0774ZM17.9823 52.2833C17.2513 52.3019 16.595 52.1529 16.0451 51.8011C15.3436 51.352 15.0131 50.6442 15.0064 49.8288L15.0131 34.6734C14.9362 33.8662 15.1965 33.1253 15.812 32.5748C16.3891 32.0574 17.1427 31.8132 17.9393 31.8298H22.8842C24.8844 31.2469 26.7915 30.4244 28.5555 29.3835C30.9272 27.9804 32.6743 25.9687 33.3419 24.1558C33.5705 23.5308 33.6927 23.0134 33.9236 21.7965C34.2359 20.1636 34.4305 19.4041 34.8786 18.4272C35.8064 16.3949 37.024 15.4015 38.7032 15.0683C40.3553 14.7413 42.7609 15.6126 44.2817 17.1524C45.9677 18.8577 46.7123 20.9914 46.4362 23.6281C46.3185 24.7622 45.9745 26.0308 45.4088 27.4444C47.3409 27.1868 49.3004 27.1479 51.243 27.3285C55.785 27.7527 58.3355 30.4576 57.9644 33.8766C57.8015 35.3501 57.2176 36.6022 56.2241 37.5852C57.0592 39.0567 57.3918 40.5116 57.1836 41.9313C56.9437 43.5663 55.948 44.9281 54.2914 45.9856C54.1624 47.4198 53.8026 48.5643 53.1644 49.4211C52.6615 50.1133 52.0054 50.7013 51.2385 51.1471C50.9941 52.5627 50.4803 53.6699 49.6407 54.4481C48.2489 55.7436 45.7618 56.5156 43.4896 56.3748C41.3329 56.2424 40.0565 56.0023 37.0466 55.1331C35.0619 54.5598 30.9521 53.6078 24.758 52.2833H17.9801H17.9823ZM21.8318 34.007C21.8312 33.8218 21.8706 33.6383 21.9477 33.4671C22.0248 33.2959 22.138 33.1403 22.281 33.0092C22.4239 32.878 22.5938 32.774 22.7808 32.703C22.9678 32.632 23.1683 32.5955 23.3707 32.5955C23.5728 32.596 23.7728 32.633 23.9593 32.7042C24.1458 32.7754 24.3151 32.8796 24.4576 33.0106C24.6001 33.1417 24.7129 33.2971 24.7897 33.4681C24.8665 33.639 24.9057 33.8221 24.9051 34.007V49.8971C24.9054 50.0819 24.8659 50.265 24.7888 50.4358C24.7118 50.6067 24.5987 50.7619 24.456 50.8928C24.3133 51.0237 24.1438 51.1276 23.9572 51.1986C23.7706 51.2695 23.5706 51.3062 23.3685 51.3065C23.1664 51.3062 22.9663 51.2695 22.7797 51.1986C22.5931 51.1276 22.4237 51.0237 22.281 50.8928C22.1383 50.7619 22.0252 50.6067 21.9481 50.4358C21.8711 50.265 21.8315 50.0819 21.8318 49.8971V34.007Z" fill="#0C0C0C" fill-opacity="0.5" shape-rendering="crispEdges"/>
</g>
<defs>
<filter id="filter0_d_648_216" x="11" y="15" width="51" height="49.3911" filterUnits="userSpaceOnUse" color-interpolation-filters="sRGB">
<feFlood flood-opacity="0" result="BackgroundImageFix"/>
<feColorMatrix in="SourceAlpha" type="matrix" values="0 0 0 0 0 0 0 0 0 0 0 0 0 0 0 0 0 0 127 0" result="hardAlpha"/>
<feOffset dy="4"/>
<feGaussianBlur stdDeviation="2"/>
<feComposite in2="hardAlpha" operator="out"/>
<feColorMatrix type="matrix" values="0 0 0 0 0 0 0 0 0 0 0 0 0 0 0 0 0 0 0.25 0"/>
<feBlend mode="normal" in2="BackgroundImageFix" result="effect1_dropShadow_648_216"/>
<feBlend mode="normal" in="SourceGraphic" in2="effect1_dropShadow_648_216" result="shape"/>
</filter>
</defs>
</svg>
