<svg width="44" height="39" viewBox="0 0 44 39" fill="none" xmlns="http://www.w3.org/2000/svg">
<g filter="url(#filter0_d_653_495)">
<path d="M30.5263 3.1C30.0238 3.1 29.5419 2.9367 29.1865 2.64602C28.8312 2.35533 28.6316 1.96109 28.6316 1.55C28.6316 1.13891 28.8312 0.744666 29.1865 0.453984C29.5419 0.163303 30.0238 0 30.5263 0H38.1053C38.6078 0 39.0897 0.163303 39.445 0.453984C39.8004 0.744666 40 1.13891 40 1.55V7.75C40 8.16109 39.8004 8.55533 39.445 8.84601C39.0897 9.1367 38.6078 9.3 38.1053 9.3C37.6027 9.3 37.1208 9.1367 36.7655 8.84601C36.4101 8.55533 36.2105 8.16109 36.2105 7.75V5.2917L25.2343 14.2708C24.879 14.5614 24.3972 14.7247 23.8947 14.7247C23.3923 14.7247 22.9105 14.5614 22.5552 14.2708L17.2632 9.9417L7.23432 18.1458C6.87696 18.4282 6.39835 18.5844 5.90156 18.5809C5.40476 18.5774 4.92954 18.4144 4.57824 18.127C4.22694 17.8396 4.02767 17.4508 4.02335 17.0444C4.01904 16.638 4.21002 16.2465 4.55516 15.9541L15.9236 6.65415C16.2789 6.36357 16.7607 6.20033 17.2632 6.20033C17.7656 6.20033 18.2474 6.36357 18.6027 6.65415L23.8947 10.9833L33.5314 3.1H30.5263ZM7.78947 24.8V29.45C7.78947 29.8611 7.58985 30.2553 7.23452 30.546C6.87919 30.8367 6.39725 31 5.89474 31C5.39222 31 4.91029 30.8367 4.55496 30.546C4.19962 30.2553 4 29.8611 4 29.45V24.8C4 24.3889 4.19962 23.9947 4.55496 23.704C4.91029 23.4133 5.39222 23.25 5.89474 23.25C6.39725 23.25 6.87919 23.4133 7.23452 23.704C7.58985 23.9947 7.78947 24.3889 7.78947 24.8V24.8ZM17.2632 18.6C17.2632 18.1889 17.0635 17.7947 16.7082 17.504C16.3529 17.2133 15.8709 17.05 15.3684 17.05C14.8659 17.05 14.384 17.2133 14.0286 17.504C13.6733 17.7947 13.4737 18.1889 13.4737 18.6V29.45C13.4737 29.8611 13.6733 30.2553 14.0286 30.546C14.384 30.8367 14.8659 31 15.3684 31C15.8709 31 16.3529 30.8367 16.7082 30.546C17.0635 30.2553 17.2632 29.8611 17.2632 29.45V18.6ZM24.8421 20.15C25.3446 20.15 25.8266 20.3133 26.1819 20.604C26.5372 20.8947 26.7368 21.2889 26.7368 21.7V29.45C26.7368 29.8611 26.5372 30.2553 26.1819 30.546C25.8266 30.8367 25.3446 31 24.8421 31C24.3396 31 23.8577 30.8367 23.5023 30.546C23.147 30.2553 22.9474 29.8611 22.9474 29.45V21.7C22.9474 21.2889 23.147 20.8947 23.5023 20.604C23.8577 20.3133 24.3396 20.15 24.8421 20.15V20.15ZM36.2105 13.95C36.2105 13.5389 36.0109 13.1447 35.6556 12.854C35.3002 12.5633 34.8183 12.4 34.3158 12.4C33.8133 12.4 33.3313 12.5633 32.976 12.854C32.6207 13.1447 32.4211 13.5389 32.4211 13.95V29.45C32.4211 29.8611 32.6207 30.2553 32.976 30.546C33.3313 30.8367 33.8133 31 34.3158 31C34.8183 31 35.3002 30.8367 35.6556 30.546C36.0109 30.2553 36.2105 29.8611 36.2105 29.45V13.95Z" fill="#FFBC65"/>
</g>
<defs>
<filter id="filter0_d_653_495" x="0" y="0" width="44" height="39" filterUnits="userSpaceOnUse" color-interpolation-filters="sRGB">
<feFlood flood-opacity="0" result="BackgroundImageFix"/>
<feColorMatrix in="SourceAlpha" type="matrix" values="0 0 0 0 0 0 0 0 0 0 0 0 0 0 0 0 0 0 127 0" result="hardAlpha"/>
<feOffset dy="4"/>
<feGaussianBlur stdDeviation="2"/>
<feComposite in2="hardAlpha" operator="out"/>
<feColorMatrix type="matrix" values="0 0 0 0 0 0 0 0 0 0 0 0 0 0 0 0 0 0 0.25 0"/>
<feBlend mode="normal" in2="BackgroundImageFix" result="effect1_dropShadow_653_495"/>
<feBlend mode="normal" in="SourceGraphic" in2="effect1_dropShadow_653_495" result="shape"/>
</filter>
</defs>
</svg>
