<svg width="47" height="36" viewBox="0 0 47 36" fill="none" xmlns="http://www.w3.org/2000/svg">
<g filter="url(#filter0_d_516_174)">
<path d="M23.08 0C21.5267 0 20.037 0.763837 18.9387 2.12348C17.8404 3.48311 17.2233 5.32718 17.2233 7.25C17.2233 9.17282 17.8404 11.0169 18.9387 12.3765C20.037 13.7362 21.5267 14.5 23.08 14.5C24.6333 14.5 26.123 13.7362 27.2213 12.3765C28.3196 11.0169 28.9367 9.17282 28.9367 7.25C28.9367 5.32718 28.3196 3.48311 27.2213 2.12348C26.123 0.763837 24.6333 0 23.08 0ZM23.08 4.14286C23.7457 4.14286 24.3841 4.47022 24.8548 5.05292C25.3256 5.63562 25.59 6.42593 25.59 7.25C25.59 8.07407 25.3256 8.86438 24.8548 9.44708C24.3841 10.0298 23.7457 10.3571 23.08 10.3571C22.4143 10.3571 21.7759 10.0298 21.3052 9.44708C20.8344 8.86438 20.57 8.07407 20.57 7.25C20.57 6.42593 20.8344 5.63562 21.3052 5.05292C21.7759 4.47022 22.4143 4.14286 23.08 4.14286ZM12.2033 6.21429C11.0938 6.21429 10.0298 6.75988 9.24527 7.73105C8.46074 8.70222 8.02 10.0194 8.02 11.3929C8.02 13.34 8.90687 15.0179 10.1786 15.9086C10.781 16.3229 11.4671 16.5714 12.2033 16.5714C12.9396 16.5714 13.6257 16.3229 14.2281 15.9086C14.8472 15.4736 15.3659 14.8521 15.7508 14.1064C14.5317 12.1398 13.8728 9.72893 13.8767 7.25V6.67C13.3747 6.38 12.8057 6.21429 12.2033 6.21429ZM33.9567 6.21429C33.3543 6.21429 32.7853 6.38 32.2833 6.67V7.25C32.2833 9.73571 31.6307 12.1386 30.4092 14.1064C30.61 14.5 30.8275 14.8107 31.0785 15.1214C31.8502 16.0476 32.8819 16.5673 33.9567 16.5714C34.6929 16.5714 35.379 16.3229 35.9814 15.9086C37.2531 15.0179 38.14 13.34 38.14 11.3929C38.14 10.0194 37.6993 8.70222 36.9147 7.73105C36.1302 6.75988 35.0662 6.21429 33.9567 6.21429ZM23.08 18.6429C19.1644 18.6429 11.3667 21.0664 11.3667 25.8929V29H34.7933V25.8929C34.7933 21.0664 26.9956 18.6429 23.08 18.6429ZM10.8814 19.7821C7.65187 20.2586 3 22.2886 3 25.8929V29H8.02V25.0021C8.02 22.91 9.1746 21.17 10.8814 19.7821ZM35.2786 19.7821C36.9854 21.17 38.14 22.91 38.14 25.0021V29H43.16V25.8929C43.16 22.2886 38.5081 20.2586 35.2786 19.7821ZM23.08 22.7857C25.6402 22.7857 28.5016 23.8214 30.1582 24.8571H16.0018C17.6584 23.8214 20.5198 22.7857 23.08 22.7857Z" fill="#F1B566"/>
</g>
<defs>
<filter id="filter0_d_516_174" x="0" y="0" width="46.1602" height="36" filterUnits="userSpaceOnUse" color-interpolation-filters="sRGB">
<feFlood flood-opacity="0" result="BackgroundImageFix"/>
<feColorMatrix in="SourceAlpha" type="matrix" values="0 0 0 0 0 0 0 0 0 0 0 0 0 0 0 0 0 0 127 0" result="hardAlpha"/>
<feOffset dy="4"/>
<feGaussianBlur stdDeviation="1.5"/>
<feComposite in2="hardAlpha" operator="out"/>
<feColorMatrix type="matrix" values="0 0 0 0 0 0 0 0 0 0 0 0 0 0 0 0 0 0 0.17 0"/>
<feBlend mode="normal" in2="BackgroundImageFix" result="effect1_dropShadow_516_174"/>
<feBlend mode="normal" in="SourceGraphic" in2="effect1_dropShadow_516_174" result="shape"/>
</filter>
</defs>
</svg>
